<svg class="icon icon--site-logo" viewBox="0 0 163 20" xmlns="http://www.w3.org/2000/svg">
<title>Abu Garcia</title>
<g clip-path="url(#clip0_2110_4373)">
<path d="M7.31209 1L2.63234 13.671L2.02307 15.3521L0.310059 19.9698H29.2775L31.0034 15.3521L31.6155 13.671L36.3101 1H7.31209Z" fill="#DD0332"></path>
<path d="M31.0033 15.3525H2.02295L2.63222 13.6714H31.6154L31.0033 15.3525Z" fill="white"></path>
<path d="M45.0387 0.511719H40.0428L33.0176 19.486H37.7754L39.1123 15.6877H45.8622L47.1016 19.486H51.9895L45.0399 0.511719H45.0387ZM42.5007 5.6238L44.5671 12.009H40.3483L42.5007 5.6238Z" fill="fill-current"></path>
<path d="M64.917 6.62587C63.8345 5.55374 62.3627 4.95088 60.7586 4.95088C59.1545 4.95088 57.7954 5.51889 56.8081 6.68162V0.513672H52.5684V19.4996H56.7303V18.2265C57.9046 19.6541 59.6574 19.8713 60.668 19.8713C62.3523 19.8713 63.7357 19.323 64.8218 18.2497C66.1646 16.893 66.9208 14.7662 66.9208 12.2607C66.9208 9.75515 66.2168 7.93032 64.917 6.62587ZM62.5614 12.5069C62.5614 12.9053 62.4835 16.4144 59.7399 16.4144C58.8722 16.4144 58.1788 16.1426 57.6433 15.6327C57.0125 14.995 56.6594 13.9449 56.6594 12.7137C56.6594 11.1084 56.9881 9.95494 57.6804 9.26845C58.1486 8.7922 58.813 8.55873 59.6191 8.55873C60.4252 8.55873 61.0676 8.79104 61.5473 9.26845C62.3871 10.1234 62.5614 11.5033 62.5614 12.5069Z" fill="fill-current"></path>
<path d="M76.9189 5.29688V13.4662C76.9189 16.1309 74.8594 16.3446 74.2415 16.3446C73.5376 16.3446 72.9905 16.168 72.6281 15.7975C72.2343 15.4328 72.0705 14.8531 72.0705 14.0563V5.29688H67.8203V14.5802C67.8203 16.2737 68.2942 17.6049 69.1968 18.5283C70.0842 19.3891 71.377 19.8711 72.9173 19.8711C74.6806 19.8711 76.1174 19.2265 77.0502 18.0393V19.4983H81.1412V5.29688H76.9189Z" fill="fill-current"></path>
<path d="M102.524 9.03243H94.2606V12.6403H98.6525C97.7627 15.9589 95.1155 16.2168 94.285 16.2168C92.6901 16.2168 91.3973 15.7556 90.4622 14.8577C89.4505 13.8309 88.9464 12.2268 88.9464 10.0964C88.9464 7.9661 89.5179 6.19935 90.6341 5.08889C91.5309 4.18054 92.7784 3.70313 94.2373 3.70313C95.6963 3.70313 96.7138 4.36639 97.276 4.93091C97.916 5.54887 98.1855 6.22142 98.1855 6.49671V6.73368H102.706L102.684 6.47349C102.504 4.24094 100.454 4.04209e-05 93.9946 4.04209e-05C91.2068 -0.00692901 88.8488 0.887481 87.161 2.59151C85.3536 4.36639 84.3535 7.02059 84.3535 10.0511C84.3535 13.0817 85.3072 15.6929 87.0762 17.462C88.6966 19.0998 90.9594 20 93.4382 20C96.6766 20 98.2599 18.5794 99.2867 17.462L99.6026 19.3007L99.6479 19.4947H102.771V9.03127H102.526L102.524 9.03243Z" fill="fill-current"></path>
<path d="M118.059 18.6057C117.805 18.5116 117.369 18.2444 117.369 16.5694V9.14002C117.369 8.1039 117.039 7.22923 116.372 6.53345C114.899 5.08962 112.333 4.93164 111.309 4.93164C108.375 4.93164 104.936 5.49152 104.5 9.94035L104.462 10.2133H108.672L108.689 10.0019C108.815 9.1679 109.16 8.30485 110.83 8.30485C111.571 8.30485 112.37 8.3606 112.808 8.79039C113.019 9.0076 113.115 9.29102 113.115 9.66505C113.115 9.83232 113.115 10.3608 111.974 10.5049L108.506 10.9997C105.661 11.3842 104.018 13.065 104.018 15.6135C104.018 16.8099 104.389 17.7972 105.127 18.5278C105.969 19.3746 107.298 19.852 108.73 19.852C111.137 19.852 112.459 18.8984 113.289 18.155C113.354 18.5755 113.649 19.4978 113.649 19.4978H118.238V18.6603L118.061 18.6057H118.059ZM109.917 16.7901C109.444 16.7901 109.007 16.624 108.728 16.3604C108.483 16.1095 108.373 15.7796 108.373 15.3823C108.373 14.1754 109.176 13.8258 110.785 13.5575C112.022 13.3856 112.688 13.1904 113.113 12.993V14.3264C113.113 15.8678 111.488 16.789 109.917 16.789V16.7901Z" fill="fill-current"></path>
<path d="M127.36 4.93164H127.243C125.175 4.93164 124.147 6.02933 123.508 7.09681V5.29986H119.439V19.4966H123.672V12.109C123.672 11.0984 123.917 10.3783 124.363 9.86832C124.962 9.34329 125.77 9.07497 126.877 9.07497C127.006 9.07497 127.173 9.08659 127.36 9.1133V4.93164Z" fill="fill-current"></path>
<path d="M136.848 14.0077V14.2447C136.848 14.8057 136.259 16.4052 134.534 16.4052C133.816 16.4052 133.25 16.202 132.822 15.778C131.899 14.8487 131.899 13.0471 131.899 12.1934C131.899 11.5673 131.992 10.0317 132.876 9.12566C133.33 8.68891 133.92 8.46821 134.622 8.46821C136.305 8.35786 136.76 9.8377 136.863 10.4789L136.908 10.6729H141.176L141.167 10.4104C140.842 6.35879 137.574 4.92773 134.621 4.92773C130.055 4.92773 127.547 7.71435 127.547 12.7707C127.547 14.0484 127.79 16.4168 129.437 18.0791C130.616 19.2592 132.277 19.8481 134.384 19.8481C139.287 19.8481 140.94 16.3472 141.138 14.2645L141.167 14.0054H136.846L136.848 14.0077Z" fill="fill-current"></path>
<path d="M146.365 5.29883H142.115V19.4956H146.365V5.29883Z" fill="fill-current"></path>
<path d="M161.511 18.6057C161.256 18.5116 160.809 18.2444 160.809 16.5694V9.14002C160.809 8.1039 160.469 7.22923 159.792 6.53345C158.336 5.08962 155.759 4.93164 154.735 4.93164C151.804 4.93164 148.38 5.49152 147.912 9.94035L147.882 10.2133H152.109L152.135 10.0019C152.232 9.1679 152.591 8.30485 154.251 8.30485C155.004 8.30485 155.796 8.3606 156.242 8.79039C156.438 9.0076 156.544 9.29102 156.544 9.66505C156.544 9.83232 156.544 10.3608 155.402 10.5049L151.926 10.9997C149.088 11.3842 147.451 13.065 147.451 15.6135C147.451 16.8099 147.819 17.7972 148.564 18.5278C149.414 19.3746 150.728 19.852 152.159 19.852C154.565 19.852 155.905 18.8984 156.711 18.155C156.776 18.5755 157.081 19.4978 157.081 19.4978H161.666V18.6603L161.512 18.6057H161.511ZM153.325 16.7901C152.88 16.7901 152.435 16.624 152.159 16.3604C151.903 16.1095 151.804 15.7796 151.804 15.3823C151.804 14.1754 152.618 13.8258 154.196 13.5575C155.438 13.3856 156.122 13.1904 156.544 12.993V14.3264C156.544 15.8678 154.926 16.789 153.324 16.789L153.325 16.7901Z" fill="fill-current"></path>
<path d="M162.26 18.7159C162.26 18.3315 162.578 18.0469 162.942 18.0469C163.305 18.0469 163.621 18.3315 163.621 18.7159C163.621 19.1004 163.308 19.3873 162.942 19.3873C162.576 19.3873 162.26 19.1039 162.26 18.7159ZM162.942 19.277C163.247 19.277 163.49 19.0365 163.49 18.7159C163.49 18.3953 163.247 18.1572 162.942 18.1572C162.636 18.1572 162.389 18.3965 162.389 18.7159C162.389 19.0354 162.637 19.277 162.942 19.277ZM162.798 19.1027H162.685V18.3315H162.979C163.162 18.3315 163.251 18.3965 163.251 18.5463C163.251 18.6962 163.166 18.7485 163.052 18.7566L163.269 19.1027H163.131L162.935 18.767H162.798V19.1027ZM162.938 18.6683C163.038 18.6683 163.13 18.6648 163.13 18.5429C163.13 18.4453 163.043 18.4314 162.963 18.4314H162.798V18.6683H162.938Z" fill="fill-current"></path>
</g>
<defs>
<clipPath id="clip0_2110_4373">
<rect width="162.62" height="20" fill="fill-current"></rect>
</clipPath>
</defs>
</svg>